<?xml version="1.0" encoding="utf-8"?>
<!-- Generator: Adobe Illustrator 26.0.3, SVG Export Plug-In . SVG Version: 6.00 Build 0)  -->
<svg version="1.1" id="Calque_1" xmlns="http://www.w3.org/2000/svg" xmlns:xlink="http://www.w3.org/1999/xlink" x="0px" y="0px"
	 viewBox="0 0 778 304" style="enable-background:new 0 0 778 304;" xml:space="preserve">
<style type="text/css">
	.st0{fill:#0D1844;}
	.st1{fill:#0075E0;}
</style>
<g>
	<path class="st0" d="M430.52,77.34h13.94v13.94c4.03-8.23,13.77-15.45,28.22-15.45c18.14,0,30.9,9.91,30.9,35.44v53.91h-13.94
		v-54.92c0-15.45-6.55-22.34-20.66-22.34c-12.93,0-24.52,8.23-24.52,24.02v53.24h-13.94V77.34z"/>
	<path class="st0" d="M516.85,122.19v-1.34c0-26.54,16.96-45.01,41.15-45.01c20.32,0,39.47,12.26,39.47,43.67v4.54h-66.17
		c0.67,19.99,10.25,31.07,28.22,31.07c13.6,0,21.5-5.04,23.35-15.28h13.94c-3.02,17.63-17.64,26.87-37.45,26.87
		C534.48,166.69,516.85,149.23,516.85,122.19z M583.19,112.78c-1.34-18.14-10.75-25.36-25.19-25.36c-14.28,0-23.85,9.74-26.2,25.36
		H583.19z M562.19,37.54h17.47l-17.47,24.69h-10.41L562.19,37.54z"/>
	<path class="st0" d="M604.69,122.02v-1.34c0-26.37,18.31-44.84,43.16-44.84c24.86,0,43.16,18.31,43.16,44.68v1.34
		c0,26.54-18.31,44.84-43.33,44.84C622.66,166.69,604.69,147.71,604.69,122.02z M676.57,122.02v-1.18
		c0-20.32-11.25-33.42-28.72-33.42c-17.63,0-28.72,13.1-28.72,33.25v1.34c0,19.99,10.92,33.09,28.72,33.09
		C665.49,155.1,676.57,141.84,676.57,122.02z"/>
</g>
<g>
	<path class="st1" d="M434.09,251.71v4.99h-4.81v-44.83h4.81v19.6c1.74-2.96,5.86-5.63,10.27-5.63c7.95,0,13.8,5.8,13.8,15.25v0.46
		c0,9.28-5.45,15.66-13.8,15.66C439.43,257.22,435.83,254.73,434.09,251.71z M453.18,241.79v-0.46c0-7.66-4.23-11.48-9.34-11.48
		c-5.63,0-9.92,3.71-9.92,11.48v0.46c0,7.77,4.06,11.43,9.98,11.43C449.93,253.22,453.18,249.16,453.18,241.79z"/>
	<path class="st1" d="M469.77,253.57l-11.89-27.2h5.16l9.28,21.75l8.41-21.75h4.93l-16.76,40.89h-4.87L469.77,253.57z"/>
	<path class="st1" d="M499.81,226.36h4.81v5.45c1.91-3.42,4.52-5.8,9.98-5.97v4.52c-6.09,0.29-9.98,2.2-9.98,9.69v16.65h-4.81
		V226.36z"/>
	<path class="st1" d="M515.06,248.29c0-7.02,7.42-9.4,15.2-9.4h4.35v-2.2c0-4.81-1.86-6.84-6.5-6.84c-4.18,0-6.5,1.74-6.96,5.45
		h-4.81c0.64-6.9,6.15-9.45,12-9.45c5.8,0,11.08,2.38,11.08,10.85v20.01h-4.81v-3.83c-2.26,2.84-4.99,4.35-9.45,4.35
		C519.53,257.22,515.06,254.49,515.06,248.29z M534.61,246.08v-3.77h-4.18c-6.09,0-10.56,1.51-10.56,5.97c0,3.13,1.51,5.1,5.74,5.1
		C530.72,253.39,534.61,250.78,534.61,246.08z"/>
	<path class="st1" d="M545.11,226.36h4.81v4.81c1.39-2.84,4.76-5.34,9.74-5.34c6.26,0,10.67,3.42,10.67,12.24v18.62h-4.81v-18.97
		c0-5.34-2.26-7.71-7.13-7.71c-4.47,0-8.47,2.84-8.47,8.29v18.39h-4.81V226.36z"/>
	<path class="st1" d="M573.76,242.14v-0.46c0-9.28,5.8-15.83,14.15-15.83c5.05,0,8.18,2.44,9.92,5.39v-19.37h4.81v44.83h-4.81v-5.22
		c-1.74,2.96-5.97,5.74-10.38,5.74C579.5,257.22,573.76,251.59,573.76,242.14z M598,241.73v-0.46c0-7.77-3.71-11.43-9.63-11.43
		c-6.03,0-9.63,4.23-9.63,11.6v0.46c0,7.66,4.12,11.31,9.22,11.31C593.59,253.22,598,249.51,598,241.73z"/>
	<path class="st1" d="M606.12,247.36h4.7c0.35,3.6,2.26,5.86,7.13,5.86c4.58,0,6.61-1.57,6.61-4.81c0-3.19-2.38-4.23-7.08-5.1
		c-7.89-1.45-10.56-3.65-10.56-8.93c0-5.63,5.51-8.53,10.27-8.53c5.45,0,10.15,2.2,10.96,8.76h-4.64c-0.7-3.31-2.55-4.76-6.38-4.76
		c-3.48,0-5.74,1.74-5.74,4.35c0,2.73,1.51,3.83,7.08,4.81c6.26,1.16,10.67,2.55,10.67,8.99c0,5.51-3.77,9.22-11.14,9.22
		C610.76,257.22,606.41,253.57,606.12,247.36z"/>
	<path class="st1" d="M633.73,249.1v-18.68h-4.35v-4.06h4.35v-6.9h4.81v6.9h7.08v4.06h-7.08v18.21c0,2.96,1.33,4.41,3.77,4.41
		c1.51,0,2.67-0.23,3.71-0.64v4.06c-0.99,0.35-2.15,0.64-4.12,0.64C636.4,257.1,633.73,253.86,633.73,249.1z"/>
	<path class="st1" d="M647.3,248.29c0-7.02,7.42-9.4,15.2-9.4h4.35v-2.2c0-4.81-1.86-6.84-6.5-6.84c-4.18,0-6.5,1.74-6.96,5.45
		h-4.81c0.64-6.9,6.15-9.45,12-9.45c5.8,0,11.08,2.38,11.08,10.85v20.01h-4.81v-3.83c-2.26,2.84-4.99,4.35-9.45,4.35
		C651.77,257.22,647.3,254.49,647.3,248.29z M666.85,246.08v-3.77h-4.18c-6.09,0-10.56,1.51-10.56,5.97c0,3.13,1.51,5.1,5.74,5.1
		C662.96,253.39,666.85,250.78,666.85,246.08z"/>
	<path class="st1" d="M675.08,242.14v-0.46c0-9.28,5.8-15.83,14.15-15.83c5.05,0,8.18,2.44,9.92,5.39v-19.37h4.81v44.83h-4.81v-5.22
		c-1.74,2.96-5.97,5.74-10.38,5.74C680.82,257.22,675.08,251.59,675.08,242.14z M699.33,241.73v-0.46c0-7.77-3.71-11.43-9.63-11.43
		c-6.03,0-9.63,4.23-9.63,11.6v0.46c0,7.66,4.12,11.31,9.22,11.31C694.92,253.22,699.33,249.51,699.33,241.73z"/>
	<path class="st1" d="M709.53,253.28c0-2.09,1.68-3.71,3.71-3.71s3.71,1.62,3.71,3.71s-1.68,3.71-3.71,3.71
		S709.53,255.36,709.53,253.28z"/>
</g>
<rect x="337.78" y="75.16" class="st0" width="4" height="182"/>
<g id="KjTABO_00000101061535479606329770000015851285052208445088_">
	<g>
		<g>
			<path class="st1" d="M129.89,138.01c0,9.07,0,18.13,0,27.2c0,1.69,0.01,1.71,1.73,1.71c5.53,0.01,11.06,0.01,16.59,0.01
				c1.89,0,1.89,0,1.89-1.93c0-15.84-0.01-31.69,0.01-47.53c0-3.15-1.03-5.82-3.31-8.04c-2.95-2.87-5.83-5.82-8.74-8.73
				c-6.67-6.67-13.35-13.34-20.02-20.02c-1.93-1.93-4.21-3.15-6.96-3.16c-16.34-0.03-32.69-0.01-49.03-0.04
				c-1.1,0-1.41,0.31-1.4,1.4c0.05,5.74,0.07,11.48-0.01,17.22c-0.02,1.32,0.43,1.57,1.63,1.56c17.63-0.04,35.27-0.03,52.9-0.01
				c0.87,0,1.74,0.09,2.6,0.23c6.96,1.14,12.09,7.13,12.11,14.2C129.91,120.71,129.89,129.36,129.89,138.01z M179.56,138.2
				c0-8.69-0.01-17.38,0.01-26.08c0-0.87,0.03-1.76,0.21-2.6c1.55-7.26,7.38-11.91,14.81-11.91c17.47,0.01,34.93,0.01,52.4,0.01
				c1.78,0,1.79,0,1.79-1.72c0-5.57,0-11.15,0-16.72c0-1.69,0-1.69-1.69-1.69c-15.97,0-31.94,0.01-47.91-0.01
				c-3.08,0-5.64,1.04-7.81,3.22c-9.65,9.69-19.33,19.36-29.01,29.03c-1.98,1.98-3,4.39-3.01,7.16c-0.03,16.18,0,32.35-0.03,48.53
				c0,1.23,0.43,1.54,1.6,1.52c5.66-0.05,11.31-0.02,16.97-0.02c1.66,0,1.67-0.01,1.67-1.65
				C179.57,156.25,179.57,147.23,179.56,138.2z"/>
			<path class="st1" d="M129.89,138.01c0-8.65,0.02-17.3-0.01-25.95c-0.02-7.06-5.16-13.06-12.11-14.2
				c-0.86-0.14-1.73-0.23-2.6-0.23c-17.63-0.01-35.27-0.02-52.9,0.01c-1.21,0-1.65-0.24-1.63-1.56c0.08-5.74,0.06-11.48,0.01-17.22
				c-0.01-1.1,0.3-1.41,1.4-1.4c16.34,0.03,32.69,0.01,49.03,0.04c2.75,0.01,5.03,1.23,6.96,3.16c6.67,6.68,13.35,13.35,20.02,20.02
				c2.91,2.91,5.79,5.85,8.74,8.73c2.28,2.22,3.31,4.89,3.31,8.04c-0.01,15.84-0.01,31.69-0.01,47.53c0,1.93,0,1.93-1.89,1.93
				c-5.53,0-11.06,0-16.59-0.01c-1.72,0-1.73-0.02-1.73-1.71C129.89,156.14,129.89,147.08,129.89,138.01z"/>
			<path class="st1" d="M179.56,138.2c0,9.02,0,18.05,0,27.07c0,1.64-0.01,1.65-1.67,1.65c-5.66,0-11.31-0.03-16.97,0.02
				c-1.16,0.01-1.6-0.3-1.6-1.52c0.03-16.18,0-32.35,0.03-48.53c0-2.77,1.02-5.18,3.01-7.16c9.67-9.67,19.35-19.33,29.01-29.03
				c2.18-2.19,4.74-3.23,7.81-3.22c15.97,0.02,31.94,0.01,47.91,0.01c1.69,0,1.69,0.01,1.69,1.69c0,5.57,0,11.15,0,16.72
				c0,1.72,0,1.72-1.79,1.72c-17.47,0-34.93,0-52.4-0.01c-7.43,0-13.26,4.65-14.81,11.91c-0.18,0.84-0.21,1.73-0.21,2.6
				C179.56,120.82,179.56,129.51,179.56,138.2z"/>
		</g>
	</g>
</g>
</svg>
